<?xml version="1.0" encoding="UTF-8" standalone="no"?>
<svg
   xmlns:dc="http://purl.org/dc/elements/1.1/"
   xmlns:cc="http://creativecommons.org/ns#"
   xmlns:rdf="http://www.w3.org/1999/02/22-rdf-syntax-ns#"
   xmlns:svg="http://www.w3.org/2000/svg"
   xmlns="http://www.w3.org/2000/svg"
   version="1.1"
   id="svg5739"
   viewBox="0 0 212.87746 212.9592"
   height="60.101822mm"
   width="60.078751mm">
  <defs
     id="defs5741" />
  <metadata
     id="metadata5744">
    <rdf:RDF>
      <cc:Work
         rdf:about="">
        <dc:format>image/svg+xml</dc:format>
        <dc:type
           rdf:resource="http://purl.org/dc/dcmitype/StillImage" />
        <dc:title></dc:title>
      </cc:Work>
    </rdf:RDF>
  </metadata>
  <g
     transform="translate(-134.44588,-433.53286)"
     id="layer1">
    <g
       transform="matrix(2.0807464,0,0,2.0807464,-145.3019,-698.69399)"
       id="g6307">
      <g
         id="g1326"
         transform="matrix(5.674508,0,0,-5.674508,154.67681,564.3282)">
        <path
           d="M 0,0 C 0.715,0.715 3.344,-0.729 6.094,-3.28 5.961,-1.899 5.122,-0.252 3.71,1.15 1.403,3.444 -1.56,4.205 -2.906,2.85 -4.251,1.496 -3.473,-1.462 -1.163,-3.757 0.254,-5.164 1.915,-5.994 3.3,-6.112 0.738,-3.355 -0.716,-0.717 0,0"
           style="fill:#0062b1;fill-opacity:1;fill-rule:nonzero;stroke:none"
           id="path1328" />
      </g>
      <g
         id="g1330"
         transform="matrix(5.674508,0,0,-5.674508,223.12386,605.1966)">
        <path
           d="m 0,0 c -1.394,1.386 -3.026,2.211 -4.396,2.351 2.553,-2.753 4.001,-5.383 3.285,-6.1 -0.72,-0.72 -3.382,0.752 -6.152,3.336 0.113,-1.391 0.957,-3.071 2.388,-4.495 C -2.565,-7.2 0.396,-7.961 1.743,-6.606 3.089,-5.251 2.307,-2.294 0,0"
           style="fill:#0062b1;fill-opacity:1;fill-rule:nonzero;stroke:none"
           id="path1332" />
      </g>
      <g
         id="g1334"
         transform="matrix(5.674508,0,0,-5.674508,236.18998,566.96744)">
        <path
           d="m 0,0 c 0,-2.221 -1.8,-4.022 -4.022,-4.022 -2.222,0 -4.023,1.801 -4.023,4.022 0,2.221 1.801,4.022 4.023,4.022 C -1.8,4.022 0,2.221 0,0"
           style="fill:#0062b1;fill-opacity:1;fill-rule:nonzero;stroke:none"
           id="path1336" />
      </g>
      <g
         id="g1338"
         transform="matrix(5.674508,0,0,-5.674508,180.11454,623.63303)">
        <path
           d="m 0,0 c 0,-2.221 -1.802,-4.022 -4.022,-4.022 -2.222,0 -4.022,1.801 -4.022,4.022 0,2.221 1.8,4.022 4.022,4.022 C -1.802,4.022 0,2.221 0,0"
           style="fill:#0062b1;fill-opacity:1;fill-rule:nonzero;stroke:none"
           id="path1340" />
      </g>
    </g>
  </g>
</svg>
