<svg width="768" height="532" viewBox="0 0 768 532" fill="none" xmlns="http://www.w3.org/2000/svg">
<g clip-path="url(#clip0_3309_1224)">
<path d="M185.881 43.9432V124.648H264.723V376.709" stroke="white" stroke-width="4" stroke-miterlimit="10" stroke-linecap="round"/>
<path d="M77.885 43.9432V251.317H185.881V387.881" stroke="white" stroke-width="4" stroke-miterlimit="10" stroke-linecap="round"/>
<path d="M164.92 313.561V160.983H362.079V43.9432H574.667V88.578H662.925" stroke="white" stroke-width="4" stroke-miterlimit="10" stroke-linecap="round"/>
<path d="M83.3113 249.614C83.3113 252.594 80.9173 255.041 77.8849 255.041C74.9057 255.041 72.4585 252.594 72.4585 249.614C72.4585 246.582 74.9057 244.188 77.8849 244.188C80.9173 244.188 83.3113 246.582 83.3113 249.614Z" fill="white"/>
<path d="M194.552 249.614C194.552 252.594 192.105 255.041 189.073 255.041C186.094 255.041 183.646 252.594 183.646 249.614C183.646 246.582 186.094 244.188 189.073 244.188C192.105 244.188 194.552 246.582 194.552 249.614Z" fill="white"/>
<path d="M190.935 44.3156C190.935 47.2948 188.488 49.742 185.508 49.742C182.476 49.742 180.082 47.2948 180.082 44.3156C180.082 41.2832 182.476 38.836 185.508 38.836C188.488 38.836 190.935 41.2832 190.935 44.3156Z" fill="white"/>
<path d="M83.3113 44.3156C83.3113 47.2948 80.9173 49.742 77.8849 49.742C74.9057 49.742 72.4585 47.2948 72.4585 44.3156C72.4585 41.2832 74.9057 38.836 77.8849 38.836C80.9173 38.836 83.3113 41.2832 83.3113 44.3156Z" fill="white"/>
<path d="M367.665 45.1136C367.665 48.0928 365.218 50.54 362.186 50.54C359.206 50.54 356.759 48.0928 356.759 45.1136C356.759 42.0812 359.206 39.634 362.186 39.634C365.218 39.634 367.665 42.0812 367.665 45.1136Z" fill="white"/>
<path d="M580.093 45.1136C580.093 48.0928 577.646 50.54 574.667 50.54C571.634 50.54 569.187 48.0928 569.187 45.1136C569.187 42.0812 571.634 39.634 574.667 39.634C577.646 39.634 580.093 42.0812 580.093 45.1136Z" fill="white"/>
<path d="M580.093 88.6844C580.093 91.7168 577.646 94.1108 574.667 94.1108C571.634 94.1108 569.187 91.7168 569.187 88.6844C569.187 85.7052 571.634 83.258 574.667 83.258C577.646 83.258 580.093 85.7052 580.093 88.6844Z" fill="white"/>
<path d="M695.43 170.293C695.43 173.272 693.036 175.72 690.004 175.72C686.972 175.72 684.578 173.272 684.578 170.293C684.578 167.261 686.972 164.814 690.004 164.814C693.036 164.814 695.43 167.261 695.43 170.293Z" fill="white"/>
<path d="M574.666 219.397C574.666 222.429 572.219 224.823 569.187 224.823C566.208 224.823 563.76 222.429 563.76 219.397C563.76 216.364 566.208 213.97 569.187 213.97C572.219 213.97 574.666 216.364 574.666 219.397Z" fill="white"/>
<path d="M731.553 219.397C731.553 222.429 729.106 224.823 726.074 224.823C723.095 224.823 720.647 222.429 720.647 219.397C720.647 216.364 723.095 213.97 726.074 213.97C729.106 213.97 731.553 216.364 731.553 219.397Z" fill="white"/>
<path d="M676.119 301.538C676.119 304.57 673.672 306.964 670.639 306.964C667.66 306.964 665.213 304.57 665.213 301.538C665.213 298.558 667.66 296.111 670.639 296.111C673.672 296.111 676.119 298.558 676.119 301.538Z" fill="white"/>
<path d="M676.119 476.619C676.119 479.598 673.672 482.045 670.639 482.045C667.66 482.045 665.213 479.598 665.213 476.619C665.213 473.586 667.66 471.139 670.639 471.139C673.672 471.139 676.119 473.586 676.119 476.619Z" fill="white"/>
<path d="M731.553 476.619C731.553 479.598 729.106 482.045 726.074 482.045C723.095 482.045 720.647 479.598 720.647 476.619C720.647 473.586 723.095 471.139 726.074 471.139C729.106 471.139 731.553 473.586 731.553 476.619Z" fill="white"/>
<path d="M607.704 170.293C607.704 173.272 605.257 175.72 602.277 175.72C599.245 175.72 596.798 173.272 596.798 170.293C596.798 167.261 599.245 164.814 602.277 164.814C605.257 164.814 607.704 167.261 607.704 170.293Z" fill="white"/>
<path d="M190.935 125.605C190.935 128.638 188.488 131.085 185.508 131.085C182.476 131.085 180.082 128.638 180.082 125.605C180.082 122.626 182.476 120.179 185.508 120.179C188.488 120.179 190.935 122.626 190.935 125.605Z" fill="white"/>
<path d="M270.15 125.605C270.15 128.638 267.702 131.085 264.723 131.085C261.691 131.085 259.244 128.638 259.244 125.605C259.244 122.626 261.691 120.179 264.723 120.179C267.702 120.179 270.15 122.626 270.15 125.605Z" fill="white"/>
<path d="M367.665 161.196C367.665 164.175 365.218 166.622 362.186 166.622C359.206 166.622 356.759 164.175 356.759 161.196C356.759 158.164 359.206 155.716 362.186 155.716C365.218 155.716 367.665 158.164 367.665 161.196Z" fill="white"/>
<path d="M170.4 160.983C170.4 163.962 167.952 166.41 164.92 166.41C161.941 166.41 159.494 163.962 159.494 160.983C159.494 157.951 161.941 155.504 164.92 155.504C167.952 155.504 170.4 157.951 170.4 160.983Z" fill="white"/>
<path d="M568.974 314.997V219.397H726.074V376.709" stroke="white" stroke-width="4" stroke-miterlimit="10" stroke-linecap="round"/>
<path d="M602.277 291.749V170.293H690.004V84.2688" stroke="white" stroke-width="4" stroke-miterlimit="10" stroke-linecap="round"/>
<path d="M619.94 301.538H670.639V476.619H726.074V531.096" stroke="white" stroke-width="4" stroke-miterlimit="10" stroke-linecap="round"/>
<g style="mix-blend-mode:multiply" opacity="0.5">
<path d="M708.677 116.295H656.116C651.647 116.295 648.029 112.678 648.029 108.209V74.8524C648.029 70.4368 651.647 66.766 656.116 66.766H708.677C713.146 66.766 716.764 70.4368 716.764 74.8524V108.209C716.764 112.678 713.146 116.295 708.677 116.295Z" fill="#A5A9E8"/>
</g>
<path d="M715.859 110.39H664.787C659.893 110.39 655.956 106.4 655.956 101.506V69.7452C655.956 64.8508 659.893 60.8608 664.787 60.8608H715.859C720.754 60.8608 724.69 64.8508 724.69 69.7452V101.506C724.69 106.4 720.754 110.39 715.859 110.39Z" fill="white"/>
<path d="M724.69 70.1176C724.69 65.0104 720.594 60.8608 715.487 60.8608H665.16C660.052 60.8608 655.956 65.0104 655.956 70.1176V70.5432H724.69V70.1176Z" fill="#A5A9E8"/>
<g style="mix-blend-mode:multiply" opacity="0.5">
<path d="M99.6436 159.972H47.082C42.6132 159.972 38.9956 156.355 38.9956 151.886V118.53C38.9956 114.061 42.6132 110.443 47.082 110.443H99.6436C104.112 110.443 107.73 114.061 107.73 118.53V151.886C107.73 156.355 104.112 159.972 99.6436 159.972Z" fill="#A5A9E8"/>
</g>
<path d="M106.826 154.067H55.7535C50.8591 154.067 46.8691 150.077 46.8691 145.183V113.422C46.8691 108.528 50.8591 104.538 55.7535 104.538H106.826C111.667 104.538 115.657 108.528 115.657 113.422V145.183C115.657 150.077 111.667 154.067 106.826 154.067Z" fill="white"/>
<path d="M115.657 113.795C115.657 108.688 111.507 104.538 106.4 104.538H56.1259C51.0187 104.538 46.8691 108.688 46.8691 113.795V114.22H115.657V113.795Z" fill="#A5A9E8"/>
<g style="mix-blend-mode:multiply" opacity="0.5">
<path d="M326.116 99.6968H233.123C228.654 99.6968 225.036 96.0792 225.036 91.6104V58.3072C225.036 53.8384 228.654 50.2208 233.123 50.2208H326.116C330.585 50.2208 334.203 53.8384 334.203 58.3072V91.6104C334.203 96.0792 330.585 99.6968 326.116 99.6968Z" fill="#A5A9E8"/>
</g>
<path d="M333.245 93.7916H241.794C236.9 93.7916 232.91 89.8548 232.91 84.9604V53.1468C232.91 48.2524 236.9 44.3156 241.794 44.3156H333.245C338.139 44.3156 342.129 48.2524 342.129 53.1468V84.9604C342.129 89.8548 338.139 93.7916 333.245 93.7916Z" fill="white"/>
<path d="M342.129 53.5192C342.129 48.412 337.98 44.3156 332.872 44.3156H242.166C237.059 44.3156 232.91 48.412 232.91 53.5192V53.998H342.129V53.5192Z" fill="#A5A9E8"/>
<g style="mix-blend-mode:multiply" opacity="0.5">
<path d="M747.034 431.026H694.473C690.004 431.026 686.386 427.409 686.386 422.94V389.584C686.386 385.168 690.004 381.55 694.473 381.55H747.034C751.503 381.55 755.121 385.168 755.121 389.584V422.94C755.121 427.409 751.503 431.026 747.034 431.026Z" fill="#A5A9E8"/>
</g>
<path d="M754.163 425.121H703.144C698.25 425.121 694.26 421.131 694.26 416.29V384.476C694.26 379.582 698.25 375.592 703.144 375.592H754.163C759.057 375.592 763.047 379.582 763.047 384.476V416.29C763.047 421.131 759.057 425.121 754.163 425.121Z" fill="white"/>
<path d="M763.047 384.849C763.047 379.742 758.898 375.592 753.791 375.592H703.517C698.409 375.592 694.26 379.742 694.26 384.849V385.274H763.047V384.849Z" fill="#A5A9E8"/>
<path d="M408.895 277.864C402.617 280.311 396.287 282.918 390.86 286.908C387.03 289.727 383.678 293.238 380.593 296.909C362.292 318.508 351.12 345.215 341.171 371.762C338.99 377.56 336.862 383.412 335.639 389.53C334.362 395.914 334.149 402.458 333.67 408.948C332.713 421.77 330.744 434.75 333.351 447.306C335.958 459.861 344.629 472.256 357.238 474.704C360.111 475.289 363.09 475.289 365.856 474.278C374.102 471.246 376.39 460.978 378.039 452.36C381.497 434.165 387.136 416.503 392.722 398.84C399.851 376.496 406.98 354.152 415.439 332.287C420.759 318.668 426.611 305.208 432.675 291.855C435.708 285.258 443.156 272.331 446.241 265.787C451.029 255.626 438.474 266.426 432.143 268.82C424.376 271.799 416.609 274.778 408.895 277.864Z" fill="#4488F0"/>
<g style="mix-blend-mode:multiply" opacity="0.5">
<path d="M408.895 277.864C402.617 280.311 396.287 282.918 390.86 286.908C387.03 289.727 383.678 293.238 380.593 296.909C362.292 318.508 351.12 345.215 341.171 371.762C338.99 377.56 336.862 383.412 335.639 389.53C334.362 395.914 334.149 402.458 333.67 408.948C332.713 421.77 330.744 434.75 333.351 447.306C335.958 459.861 344.629 472.256 357.238 474.704C360.111 475.289 363.09 475.289 365.856 474.278C374.102 471.246 376.39 460.978 378.039 452.36C381.497 434.165 387.136 416.503 392.722 398.84C399.851 376.496 406.98 354.152 415.439 332.287C420.759 318.668 426.611 305.208 432.675 291.855C435.708 285.258 443.156 272.331 446.241 265.787C451.029 255.626 438.474 266.426 432.143 268.82C424.376 271.799 416.609 274.778 408.895 277.864Z" fill="#4488F0"/>
</g>
<path d="M522.637 242.698C527.371 241.422 531.787 238.815 536.681 238.389C544.183 237.698 551.045 242.166 557.483 246.103C563.228 249.614 569.116 252.842 575.145 255.786C586.477 261.265 598.287 265.681 609.512 271.32C620.737 276.959 631.537 283.928 639.57 293.611C647.603 303.293 652.604 315.955 651.115 328.404C649.838 339.203 648.721 350.535 645.901 361.068C640.953 379.635 602.862 528.116 596.957 532C596.957 532 403.735 530.936 367.346 532.213C356.227 532.638 371.229 437.144 371.708 431.505C374.794 395.702 386.338 361.122 399.213 327.552C409.001 302.123 421.131 275.204 444.858 261.797C461.457 252.381 481.247 251.051 500.293 249.987C501.091 249.934 500.984 248.444 501.569 247.965C503.165 246.742 505.293 246.635 507.262 246.422C511.145 245.944 518.859 243.709 522.637 242.698Z" fill="#4488F0"/>
<g style="mix-blend-mode:multiply" opacity="0.5">
<path d="M535.351 481.832C479.172 476.672 421.876 481.832 366.335 473.693C364.313 491.728 362.717 511.358 363.462 523.275C379.475 526.84 396.499 525.563 412.832 522.85C432.409 519.604 451.774 514.55 471.618 513.965C500.293 513.061 528.435 521.573 557.057 523.169C572.272 524.02 587.541 522.796 602.437 519.764C605.15 511.465 608.608 499.974 612.279 486.886C587.062 488.536 560.834 484.173 535.351 481.832Z" fill="#4488F0"/>
</g>
<g style="mix-blend-mode:multiply" opacity="0.5">
<path d="M631.963 285.844C594.563 302.229 563.813 333.883 549.662 372.294C541.682 393.893 538.756 416.928 535.883 439.804C515.135 433.261 493.164 431.452 472.15 425.813C451.402 420.174 431.665 410.81 410.438 407.352C398.893 405.437 387.136 405.331 375.379 405.65C373.73 414.215 372.506 422.834 371.708 431.505C371.229 437.144 371.07 443.209 373.943 448.05C376.017 451.615 379.529 454.062 383.199 455.977C393.148 461.031 404.533 462.202 415.651 463.159C447.039 465.819 478.481 467.468 509.869 469.171C525.031 469.969 540.246 470.767 555.408 469.809C563.654 469.224 572.272 468.054 579.188 463.478C585.147 459.648 589.349 453.69 593.393 447.891C601.834 435.797 610.275 423.703 618.716 411.608C629.728 395.808 640.953 379.635 645.901 361.068C648.721 350.535 649.838 339.203 651.115 328.404C652.604 315.955 647.603 303.293 639.57 293.611C637.229 290.791 634.676 288.238 631.963 285.844Z" fill="#4488F0"/>
</g>
<g style="mix-blend-mode:multiply" opacity="0.5">
<path d="M459.328 276.321C460.073 284.567 461.297 292.866 464.542 300.527C467.787 308.134 473.267 315.05 480.768 318.615C488.163 322.126 496.834 322.073 504.868 320.424C508.698 319.626 512.475 318.508 515.986 316.753C519.232 315.104 522.158 312.976 524.977 310.635C532.319 304.676 538.916 297.76 544.129 289.887C546.364 286.482 548.332 282.971 550.3 279.406C552.428 275.576 554.556 271.728 556.684 267.862C559.77 262.223 562.962 256.371 564.398 250.146C562.058 248.834 559.752 247.486 557.482 246.103C551.045 242.166 544.182 237.698 536.681 238.389C531.787 238.815 527.371 241.422 522.636 242.698C518.859 243.709 511.145 245.944 507.262 246.422C505.293 246.635 503.165 246.742 501.569 247.965C500.984 248.444 501.09 249.934 500.292 249.987C486.673 250.732 472.628 251.636 459.648 255.573C458.477 262.382 458.743 269.405 459.328 276.321Z" fill="#4488F0"/>
</g>
<path d="M552.801 450.71C551.95 427.196 563.973 405.118 566.474 381.71C567.112 375.539 567.112 369.314 568.229 363.25C569.666 355.27 573.017 347.822 576.422 340.48C579.454 334.096 582.54 327.712 586.37 321.754C594.989 308.188 607.118 296.856 621.216 289.142C625.579 286.801 630.792 284.726 635.368 286.588C638.028 287.652 639.996 289.834 641.698 292.121C648.721 301.378 652.817 312.816 653.296 324.467C653.509 330.159 652.817 335.905 652.179 341.597C649.359 366.335 645.635 391.658 642.496 416.396C641.752 422.195 641.007 427.994 639.73 433.686C637.442 443.688 633.452 453.264 629.356 462.68C626.962 468.16 624.515 473.693 622.121 479.172C619.78 484.333 617.439 489.653 613.609 493.802C606.267 501.729 594.084 504.283 583.71 501.197C576.741 499.176 570.676 494.92 564.718 490.77C561.366 488.429 557.908 485.982 555.621 482.577C553.599 479.545 552.642 475.98 551.79 472.469C549.928 464.915 553.12 458.478 552.801 450.71Z" fill="#4488F0"/>
<g style="mix-blend-mode:multiply" opacity="0.5">
<path d="M582.221 457.839C589.881 459.967 597.755 463.585 601.852 470.448C604.831 475.448 605.363 481.46 605.682 487.312C605.895 490.823 605.522 495.239 602.277 496.569C600.202 497.42 597.861 496.622 595.84 495.771C586.051 491.674 576.422 487.099 568.069 480.556C564.133 477.523 560.515 474.012 557.376 470.128C555.301 467.468 549.503 460.659 549.928 457.041C550.62 450.498 577.379 456.456 582.221 457.839Z" fill="#4488F0"/>
</g>
<path d="M550.833 252.86C549.503 247.114 544.183 243.23 539.022 240.304C533.862 237.378 528.223 234.612 525.137 229.558C523.967 227.643 523.222 225.515 522.69 223.334C520.03 212.215 522.69 200.564 525.297 189.445C519.338 188.594 513.007 189.764 507.528 192.265C502.101 194.765 497.207 198.383 492.525 202.266C476.885 215.194 463.585 230.994 453.53 248.657C457.892 258.605 460.499 269.298 463.265 279.832C465.287 287.546 467.096 295.792 472.682 301.484C476.672 305.528 482.258 307.815 487.844 308.4C493.483 308.986 499.229 307.922 504.549 306.113C511.571 303.666 518.061 299.782 523.541 294.834C526.467 292.174 529.074 289.195 531.681 286.216C534.021 283.556 536.38 280.896 538.756 278.236C540.937 275.736 543.225 273.182 545.034 270.362C548.492 265.042 552.322 259.031 550.833 252.86Z" fill="#F0C49B"/>
<path d="M550.833 252.86C549.503 247.114 544.183 243.23 539.022 240.304C533.862 237.378 528.223 234.612 525.137 229.558C523.967 227.643 523.222 225.515 522.69 223.334C520.03 212.215 522.69 200.564 525.297 189.445C519.338 188.594 513.007 189.764 507.528 192.265C502.101 194.765 497.207 198.383 492.525 202.266C476.885 215.194 463.585 230.994 453.53 248.657C455.339 252.806 456.828 257.116 458.211 261.478C460.605 261.106 462.999 260.627 465.34 259.935C469.703 258.605 473.799 256.637 477.842 254.562C482.683 252.062 487.525 249.402 492.047 246.316C500.239 240.624 507.262 233.548 514.231 226.419C514.976 232.75 515.614 234.612 516.838 240.89C518.913 251.264 522.371 261.425 527.265 270.575C523.435 276.853 519.711 283.396 514.231 288.238C508.166 293.664 500.452 296.962 492.525 298.718C487.791 299.782 482.896 300.314 478.055 299.835C475.235 299.569 472.575 298.931 469.969 298.026C470.767 299.25 471.671 300.42 472.682 301.484C476.672 305.528 482.258 307.815 487.844 308.4C493.483 308.986 499.229 307.922 504.549 306.113C511.571 303.666 518.061 299.782 523.541 294.834C526.467 292.174 529.074 289.195 531.681 286.216C534.021 283.556 536.38 280.896 538.756 278.236C540.937 275.736 543.225 273.182 545.034 270.362C548.492 265.042 552.322 259.031 550.833 252.86Z" fill="#E0A988"/>
<path d="M480.768 269.352C477.736 271.214 473.533 271.054 470.66 268.979C469.011 267.809 467.787 266.053 466.777 264.298C467.415 267.224 467.681 269.937 469.969 271.852C471.671 273.342 474.065 274.033 476.299 273.714C478.534 273.395 479.545 271.267 480.768 269.352Z" fill="#E0A988"/>
<path d="M531.255 265.362C535.405 261.372 538.384 256.371 539.767 250.998C539.98 250.2 540.139 249.402 539.927 248.657C539.661 247.752 538.916 247.061 538.171 246.476C535.564 244.454 532.532 242.964 529.765 241.156C523.541 237.112 519.179 231.526 516.253 225.089C516.306 231.526 519.391 238.602 521.626 244.614C524.286 251.742 527.478 258.658 531.255 265.362Z" fill="#F0C49B"/>
<path d="M456.775 253.658C451.508 254.934 445.869 256.264 440.602 254.722C436.187 253.338 432.516 250.04 430.015 246.103C427.462 242.22 425.919 237.804 424.483 233.335C417.247 210.459 411.183 187.743 404.001 164.441C402.192 158.376 408.948 152.578 413.47 148.109C429.164 132.574 449.221 119.54 471.352 119.381C476.938 119.328 482.737 120.179 487.525 123.105C495.239 127.786 499.016 136.884 501.357 145.608C503.272 152.897 504.602 160.345 505.879 167.846C507.634 178.007 509.39 188.168 510.56 198.436C511.092 202.798 511.465 207.161 510.56 211.417C509.39 216.95 506.145 221.791 502.367 226.047C490.291 239.56 474.384 249.242 456.775 253.658Z" fill="#F0C49B"/>
<path d="M411.395 174.656C414.321 179.71 419.907 182.529 425.174 185.03C422.727 181.465 422.089 176.677 423.578 172.581C425.121 168.325 428.685 165.08 432.622 162.845C436.559 160.611 440.921 159.174 445.071 157.472C449.274 155.716 453.423 153.588 456.456 150.237C453.636 156.302 449.646 161.781 444.805 166.303C454.328 167.048 464.063 161.462 468.213 152.844C468.851 161.036 473.852 168.538 481.194 172.155C480.821 168.697 480.928 165.186 481.513 161.728C483.003 163.43 485.131 164.494 487.099 165.718C491.408 168.325 495.345 171.889 497.42 176.464C498.697 179.39 499.229 182.529 499.601 185.668C500.027 189.339 500.293 193.063 500.559 196.734C500.736 199.003 500.913 201.273 501.091 203.543C502.793 200.83 504.123 197.904 504.974 194.818C506.091 197.957 506.091 201.362 506.038 204.66C506.038 206.292 506.038 207.906 506.038 209.502C507.528 204.43 508.858 199.287 510.028 194.074C508.858 185.296 507.368 176.571 505.879 167.846C504.602 160.345 503.272 152.897 501.357 145.608C499.016 136.884 495.239 127.786 487.525 123.105C482.737 120.179 476.938 119.328 471.352 119.381C449.221 119.54 429.164 132.574 413.47 148.109C408.948 152.578 402.192 158.376 404.001 164.441C405.916 170.506 407.671 176.571 409.427 182.582C411.927 183.7 414.587 184.444 417.301 184.71C414.641 181.838 412.672 178.38 411.395 174.656Z" fill="#E0A988"/>
<path d="M439.059 212.055C434.112 213.917 428.632 214.236 423.525 213.066C423.525 213.101 423.525 213.119 423.525 213.119C423.631 213.438 423.897 213.704 424.11 213.97C426.522 216.205 428.916 218.421 431.292 220.62C434.112 218.014 436.612 215.247 439.059 212.055Z" fill="#E0A988"/>
<path d="M421.716 209.076C422.461 206.576 419.535 203.437 414.96 201.522C415.953 204.926 416.946 208.349 417.939 211.789C419.907 211.364 421.291 210.459 421.716 209.076Z" fill="#E89F87"/>
<path d="M420.546 183.806C425.972 192.052 427.196 202.905 423.738 212.108C423.578 212.428 423.472 212.8 423.525 213.119C423.631 213.438 423.898 213.704 424.11 213.97C426.983 216.595 429.838 219.237 432.675 221.897" stroke="#331810" stroke-width="3" stroke-linecap="round" stroke-linejoin="round"/>
<path d="M430.015 229.824C433.367 230.994 436.985 230.835 440.496 230.356C445.071 229.718 449.593 228.6 453.955 227.004" stroke="#331810" stroke-width="3" stroke-linecap="round" stroke-linejoin="round"/>
<path d="M431.984 226.738C433.899 226.26 435.974 226.26 437.889 226.792" stroke="#BA7A5D" stroke-width="2" stroke-linecap="round" stroke-linejoin="round"/>
<path d="M432.622 236.634C436.453 237.485 440.602 236.846 443.954 234.878" stroke="#BA7A5D" stroke-width="2" stroke-linecap="round" stroke-linejoin="round"/>
<path d="M445.975 169.389C448.901 166.942 453.743 167.101 456.562 169.761" stroke="#331810" stroke-width="3" stroke-linecap="round" stroke-linejoin="round"/>
<path d="M485.929 197.957C487.259 200.67 483.907 205.033 478.374 207.799C472.895 210.512 467.309 210.512 465.979 207.799C464.649 205.086 468.053 200.67 473.533 197.957C479.066 195.244 484.599 195.244 485.929 197.957Z" fill="#E89F87"/>
<path d="M454.647 184.764C454.913 188.168 454.009 191.041 452.519 191.201C451.083 191.307 449.646 188.647 449.38 185.242C449.061 181.784 450.019 178.912 451.455 178.805C452.892 178.646 454.328 181.306 454.647 184.764Z" fill="#331810"/>
<path d="M420.12 190.935C420.386 194.393 419.482 197.266 417.992 197.372C416.556 197.532 415.119 194.872 414.853 191.414C414.534 188.009 415.492 185.136 416.928 184.976C418.365 184.87 419.801 187.53 420.12 190.935Z" fill="#331810"/>
<path d="M411.768 179.869C412.672 179.231 413.736 179.018 414.8 178.805" stroke="#331810" stroke-width="3" stroke-linecap="round" stroke-linejoin="round"/>
<path d="M522.583 202.479C523.86 198.968 519.604 191.201 526.201 190.296C529.872 189.818 526.52 182.689 524.977 179.284C523.275 175.666 519.338 172.634 515.561 173.751C513.486 174.39 511.89 176.145 510.986 178.06C510.081 180.029 509.709 182.157 509.337 184.285C508.521 189.357 507.687 194.446 506.836 199.553C506.943 195.031 506.357 190.456 505.134 186.094C504.495 188.434 503.538 190.243 501.889 191.999C502.367 188.062 502.261 184.072 501.516 180.135C500.718 175.773 499.122 171.464 496.143 168.165C493.696 165.399 490.451 163.484 487.525 161.249C484.599 159.015 481.939 156.621 481.141 153.003C478.959 157.525 478.215 162.632 479.225 167.58C473.107 161.09 470.873 151.194 473.48 142.682C468.426 150.769 460.605 157.844 452.306 162.473C453.317 161.994 454.009 161.09 454.7 160.185C459.382 153.961 464.17 147.364 464.861 139.65C453.689 148.002 440.602 152.95 429.058 160.77C425.6 163.111 422.195 165.718 420.12 169.336C418.045 172.9 417.513 177.688 419.801 181.146C415.013 177.688 410.97 172.74 409.427 167.048C409.267 166.303 409.055 165.558 409.161 164.814C407.299 171.251 409.214 178.433 414.162 182.902C406.927 180.242 400.649 175.081 397.031 168.272C396.18 166.569 395.435 164.814 395.169 162.952C392.988 164.441 391.552 165.984 390.328 168.325C388.2 172.474 386.232 176.996 386.764 181.625C384.263 174.443 384.104 166.835 386.232 159.494C388.36 152.099 393.573 144.97 401.075 143.214C395.435 143.055 389.424 140.98 384.955 137.522C390.594 139.171 397.031 138.426 402.192 135.82C397.297 134.436 392.137 132.042 388.041 129.01C395.595 127.893 405.277 124.169 410.97 119.115C416.609 114.008 419.429 107.624 425.068 102.463C432.356 95.8132 440.815 90.4932 449.965 86.7692C455.817 84.3752 461.935 82.6728 468.266 82.4068C483.003 81.8216 497.367 88.312 509.656 96.5048C525.829 107.304 531.574 121.083 548.013 127.574C543.917 127.893 540.033 127.414 536.203 126.031C538.331 131.936 538.969 137.894 539.501 144.172C539.873 148.854 539.82 153.642 541.257 158.11C542.693 162.579 546.045 166.782 550.673 167.58C547.96 168.112 545.779 167.686 543.119 166.942C540.831 166.303 538.331 165.558 537.001 163.59C536.203 176.89 530.351 191.733 522.583 202.479Z" fill="#512E21"/>
<path opacity="0.2" d="M531.361 138.373C527.903 133.266 523.807 128.584 519.232 124.541C526.893 138.214 529.021 154.918 524.977 170.08C525.19 168.591 524.977 167.048 524.765 165.612C523.488 156.94 521.839 148.322 518.913 140.076C515.987 131.83 511.784 123.956 505.825 117.572C510.241 124.275 512.209 132.202 514.125 139.969C515.987 147.79 517.902 155.823 516.731 163.75C515.242 153.642 511.731 143.853 506.464 135.128C509.656 144.332 510.879 154.12 511.199 163.856C511.305 168.165 511.305 172.634 513.061 176.624C507.687 166.676 503.697 155.77 503.059 144.491C501.995 152.897 502.899 161.515 505.559 169.548C503.006 158.323 493.696 149.918 488.908 139.437C487.099 135.394 485.929 131.085 485.556 126.669C491.142 134.383 496.835 142.31 499.654 151.46C499.282 143.8 498.218 136.245 496.462 128.797C501.889 135.447 505.772 143.374 507.741 151.726C505.719 142.257 503.644 132.574 498.324 124.488C503.059 127.786 507.9 131.244 510.72 136.245C509.478 133.301 508.237 130.34 506.996 127.361C504.655 121.722 502.208 115.923 498.165 111.348C503.059 113.901 508.007 116.508 511.943 120.285C516.359 124.541 519.285 130.021 521.36 135.766C517.955 128.478 514.55 121.19 509.922 114.646C514.763 117.732 519.285 121.296 523.488 125.233C520.828 122.732 518.593 118.157 516.519 115.072C523.009 121.775 528.116 129.648 531.361 138.373Z" fill="white"/>
<g style="mix-blend-mode:multiply" opacity="0.5">
<path d="M404.107 172.208C402.617 169.868 401.181 167.42 400.223 164.76C398.734 160.77 398.468 156.302 399.425 152.099C395.382 156.514 391.711 161.356 389.264 166.782C387.455 170.772 386.338 175.134 386.072 179.444C386.285 180.188 386.498 180.88 386.764 181.625C386.232 176.996 388.2 172.474 390.328 168.325C391.552 165.984 392.988 164.441 395.169 162.952C395.435 164.814 396.18 166.569 397.031 168.272C400.596 174.975 406.767 180.082 413.843 182.795C409.906 180.242 406.714 176.252 404.107 172.208Z" fill="#512E21"/>
<path d="M522.583 114.593C529.819 124.275 535.618 135.022 539.661 146.406C539.59 145.662 539.537 144.917 539.501 144.172C538.969 137.894 538.331 131.936 536.203 126.031C540.033 127.414 543.917 127.893 548.013 127.574C547.978 127.574 547.96 127.574 547.96 127.574C543.651 126.988 539.448 125.446 535.617 123.371C530.989 120.924 526.786 117.732 522.583 114.593Z" fill="#512E21"/>
<path d="M396.18 140.235C392.669 140.182 389.105 139.384 386.019 137.788C385.647 137.682 385.327 137.628 384.955 137.522C389.158 140.82 394.797 142.789 400.17 143.161C405.118 141.725 409.853 139.597 414.162 136.777C408.31 138.586 402.298 140.395 396.18 140.235Z" fill="#512E21"/>
<path d="M420.386 126.669C410.544 131.776 398.628 132.574 388.2 129.01C388.165 129.01 388.112 129.01 388.041 129.01C392.137 132.042 397.298 134.436 402.192 135.82C401.873 135.979 401.5 136.139 401.128 136.298C404.746 135.713 408.15 134.224 411.342 132.521C414.481 130.766 417.514 128.85 420.386 126.669Z" fill="#512E21"/>
<path d="M498.324 167.261C496.409 165.08 494.707 162.686 492.685 160.558C490.397 158.11 487.684 156.036 485.397 153.535C483.162 150.982 481.3 147.896 481.247 144.491C477.629 151.514 476.938 159.972 479.225 167.527C478.215 162.632 478.959 157.525 481.141 153.003C481.939 156.621 484.599 159.015 487.525 161.249C490.451 163.484 493.696 165.399 496.143 168.165C499.122 171.464 500.718 175.773 501.516 180.135C502.261 184.072 502.367 188.062 501.889 191.999C503.538 190.243 504.495 188.434 505.134 186.094C506.357 190.456 506.943 195.031 506.836 199.553C507.687 194.446 508.521 189.357 509.337 184.285C509.709 182.157 510.081 180.029 510.986 178.06C511.057 177.883 511.145 177.706 511.252 177.528C506.357 174.922 501.942 171.464 498.324 167.261Z" fill="#512E21"/>
<path d="M541.469 162.26C537.267 157.525 534.394 151.833 531.521 146.194C532 157.791 529.819 169.442 525.35 180.082C526.946 183.7 529.606 189.871 526.201 190.296C519.604 191.201 523.86 198.968 522.583 202.479C530.351 191.733 536.203 176.89 537.001 163.59C538.331 165.558 540.831 166.303 543.119 166.942C545.779 167.686 547.96 168.112 550.673 167.58C550.141 167.509 549.609 167.367 549.077 167.154C548.864 167.154 548.651 167.101 548.385 167.048C545.619 166.356 543.385 164.388 541.469 162.26Z" fill="#512E21"/>
<path d="M445.231 145.502C441.613 147.204 438.049 148.995 434.537 150.875C430.015 153.269 425.547 155.876 421.876 159.44C418.205 162.952 416.024 168.272 415.385 173.326C412.247 167.846 411.289 161.09 412.779 154.918C410.863 158.483 409.001 162.26 408.842 166.197C408.913 165.736 409.019 165.275 409.161 164.814C409.055 165.558 409.267 166.303 409.427 167.048C410.97 172.74 415.013 177.688 419.801 181.146C417.513 177.688 418.045 172.9 420.12 169.336C422.195 165.718 425.6 163.111 429.058 160.77C440.549 152.95 453.583 148.002 464.755 139.703C466.085 136.83 467.043 133.851 467.362 130.712C462.148 138.001 453.37 141.672 445.231 145.502Z" fill="#512E21"/>
<path d="M463.585 151.514C460.818 154.812 457.733 157.898 454.381 160.611C453.796 161.356 453.158 162.1 452.306 162.473C460.286 158.057 467.788 151.407 472.842 143.693C473.693 140.129 474.863 136.671 476.246 133.319C472.31 139.597 468.373 145.874 463.585 151.514Z" fill="#512E21"/>
</g>
<g style="mix-blend-mode:multiply" opacity="0.5">
<path d="M468.692 136.777C469.277 132.947 471.458 129.489 473.799 126.403C482.151 115.391 493.536 106.719 506.357 101.559" stroke="#512E21" stroke-width="2" stroke-linecap="round" stroke-linejoin="round"/>
</g>
<path opacity="0.2" d="M422.727 148.694C427.675 144.225 433.633 140.927 438.208 136.139C432.569 139.437 426.859 142.665 421.078 145.821C417.62 147.736 414.055 149.598 411.076 152.258C408.15 154.972 405.809 158.536 405.49 162.526C404.107 159.334 404.905 155.61 406.714 152.684C408.523 149.758 411.289 147.577 414.109 145.608C420.918 140.98 428.366 137.362 435.442 133.16C442.517 129.01 449.38 124.116 454.381 117.625C449.54 125.712 443.688 133.213 436.985 139.81C432.622 144.066 427.994 148.002 423.578 152.152C421.184 154.493 418.843 156.887 417.088 159.76C415.385 162.632 414.375 166.037 414.8 169.336C413.843 166.037 414.481 161.143 415.758 158.057C417.247 154.44 419.854 151.248 422.727 148.694Z" fill="white"/>
<path opacity="0.2" d="M442.464 106.932C436.559 119.86 425.227 130.18 411.768 134.756C419.482 134.543 426.823 131.67 432.143 126.084C436.985 120.977 440.389 113.635 442.464 106.932Z" fill="white"/>
<path opacity="0.2" d="M451.881 93.632C445.071 94.7492 439.059 98.686 433.899 103.261C428.685 107.783 424.163 113.05 419.003 117.625C413.843 122.2 407.831 126.137 401.075 127.308C408.736 125.818 416.449 124.648 422.727 120.019C426.877 116.934 429.962 112.731 433.473 108.954C438.793 103.102 444.965 97.5156 451.881 93.632Z" fill="white"/>
<path opacity="0.2" d="M453.264 104.751C457.573 99.3776 462.893 94.5896 469.33 92.2488C475.821 89.908 483.588 90.3868 488.961 94.696C482.364 93.6852 475.448 95.1216 469.809 98.686C476.14 96.292 483.481 96.7708 489.44 100.016C479.279 99.1116 468.532 103.846 463.212 112.571C465.606 106.4 470.926 101.452 477.257 99.484C470.607 100.122 464.117 102.676 458.797 106.719C462.361 100.282 469.011 96.2388 475.501 92.7808C467.521 95.2812 460.286 99.9096 454.7 106.081C448.103 113.369 443.422 122.998 434.591 127.361C438.208 125.552 442.039 120.817 444.273 117.519C447.146 113.156 449.965 108.794 453.264 104.751Z" fill="white"/>
<path opacity="0.2" d="M457.147 131.138C461.137 126.882 464.489 122.041 468.426 117.678C472.363 113.316 477.151 109.432 482.79 107.943C477.257 111.88 473.427 117.785 469.171 123.105C459.063 135.554 445.603 145.236 430.601 150.822C432.675 150.024 434.378 148.056 436.24 146.832C438.74 145.236 441.241 143.746 443.688 142.097C448.529 138.905 453.157 135.341 457.147 131.138Z" fill="white"/>
<path d="M460.233 189.179C460.233 189.179 504.602 173.592 514.178 169.07C523.807 164.601 526.201 172.421 526.201 172.421C526.201 172.421 531.734 176.624 530.138 168.697C529.34 164.707 526.573 163.058 524.02 162.366C521.626 161.728 519.125 161.994 516.838 162.845L458.85 184.976C458.158 186.626 458.743 188.222 460.233 189.179Z" fill="#666EB2"/>
<g style="mix-blend-mode:multiply" opacity="0.5">
<path d="M528.382 169.229C527.265 166.995 524.871 165.558 522.371 165.133C519.87 164.654 517.317 165.08 514.923 165.718C511.465 166.622 508.113 167.952 504.815 169.282C489.564 175.525 474.296 181.749 459.01 187.956C459.293 188.417 459.701 188.825 460.233 189.179C460.233 189.179 504.602 173.592 514.178 169.07C523.807 164.601 526.201 172.421 526.201 172.421C526.201 172.421 527.957 173.751 529.234 173.485C529.234 171.996 529.021 170.559 528.382 169.229Z" fill="#666EB2"/>
</g>
<path fill-rule="evenodd" clip-rule="evenodd" d="M461.563 202.373C460.978 203.809 459.595 204.873 458.105 205.458C456.775 205.937 455.339 206.097 453.955 206.15C451.579 206.256 449.203 206.221 446.827 206.044C443.954 205.831 440.975 205.405 438.634 203.756C436.665 202.426 435.335 200.404 434.112 198.383C432.888 196.361 431.665 194.286 429.856 192.797C428.047 191.254 426.611 190.403 424.376 191.148C424.749 193.701 425.174 196.734 425.227 199.447C425.281 201.415 425.227 203.596 424.163 205.246C422.993 207.001 420.918 207.906 418.95 208.65C415.811 209.821 406.448 210.991 403.522 206.31C401.819 203.596 400.277 200.777 398.893 197.904C397.723 195.457 396.872 192.797 396.18 190.137C396.021 189.552 395.914 188.913 396.074 188.328C396.446 186.785 398.415 186.306 400.064 186.147C406.714 185.455 413.789 185.03 420.493 184.444C421.716 186.253 423.153 188.168 425.653 188.062C426.398 188.009 427.089 187.796 427.728 187.424C428.473 186.945 429.111 186.306 429.59 185.508C430.335 184.338 431.611 183.54 432.995 183.274C435.708 182.742 438.581 182.689 441.347 182.636C444.326 182.636 447.252 182.529 450.178 182.529C460.18 182.529 459.222 185.455 459.541 185.774C460.073 186.36 460.712 186.892 460.765 187.69C460.978 191.414 461.776 195.031 461.989 198.755C462.042 199.979 462.042 201.256 461.563 202.373ZM421.291 191.52C420.812 189.924 420.12 188.168 418.631 187.424C417.779 186.998 416.769 186.945 415.811 186.945C413.08 186.909 410.331 187.016 407.565 187.264C405.49 187.477 401.447 187.37 399.745 188.7C398.149 189.924 399.851 192.956 400.383 194.393C401.341 197.017 402.458 199.571 403.735 202.054C404.213 203.011 404.692 204.022 405.543 204.714C406.607 205.671 408.044 206.044 409.427 206.256C413.204 206.842 417.088 206.576 420.705 205.405C421.237 205.246 421.769 205.033 422.089 204.66C422.355 204.288 422.461 203.862 422.514 203.49C423.259 199.5 422.461 195.404 421.291 191.52ZM459.329 197.266C458.956 194.818 458.371 192.424 457.573 190.084C457.254 189.179 456.935 188.222 456.243 187.583C455.232 186.626 453.689 186.466 452.359 186.36C450.302 186.182 448.263 186.005 446.241 185.828C441.932 185.455 437.41 185.136 433.58 186.998C430.813 188.381 438.581 199.766 440.921 201.468C443.049 202.958 445.656 203.65 448.263 203.809C450.923 203.916 453.53 203.543 456.083 203.118C456.722 203.011 457.36 202.905 457.945 202.586C459.595 201.575 459.648 199.181 459.329 197.266Z" fill="#666EB2"/>
<path opacity="0.5" d="M457.573 190.084C457.254 189.179 456.935 188.222 456.243 187.583C455.232 186.626 453.689 186.466 452.359 186.36C450.302 186.182 448.263 186.005 446.241 185.828C441.932 185.455 437.41 185.136 433.58 186.998C430.813 188.381 438.581 199.766 440.921 201.468C443.049 202.958 445.656 203.65 448.263 203.809C450.923 203.916 453.53 203.543 456.083 203.118C456.722 203.011 457.36 202.905 457.945 202.586C459.595 201.575 459.648 199.181 459.329 197.266C458.956 194.818 458.371 192.424 457.573 190.084Z" fill="white"/>
<path opacity="0.5" d="M418.631 187.424C417.779 186.998 416.768 186.945 415.811 186.945C413.08 186.909 410.331 187.016 407.565 187.264C405.49 187.477 401.447 187.37 399.745 188.7C398.149 189.924 399.851 192.956 400.383 194.393C401.34 197.017 402.458 199.571 403.735 202.054C404.213 203.011 404.692 204.022 405.543 204.714C406.607 205.671 408.044 206.044 409.427 206.256C413.204 206.842 417.088 206.576 420.705 205.405C421.237 205.246 421.769 205.033 422.089 204.66C422.355 204.288 422.461 203.862 422.514 203.49C423.259 199.5 422.461 195.404 421.291 191.52C420.812 189.924 420.12 188.168 418.631 187.424Z" fill="white"/>
<path opacity="0.5" d="M408.523 193.861C406.767 191.786 405.065 189.658 403.309 187.583C401.979 187.743 400.702 188.062 399.851 188.594C404.692 194.712 409.64 200.777 414.907 206.469C416.662 206.363 418.418 206.044 420.12 205.565C415.971 202 412.087 198.064 408.523 193.861Z" fill="white"/>
<path opacity="0.5" d="M422.78 198.968C422.621 196.468 422.036 193.914 421.291 191.52C420.812 189.924 420.12 188.168 418.631 187.424C417.78 186.998 416.769 186.945 415.811 186.945C414.162 186.892 412.459 186.945 410.757 187.051C414.658 191.13 418.666 195.102 422.78 198.968Z" fill="white"/>
<path opacity="0.5" d="M435.442 186.306C439.006 192.424 443.049 198.276 447.571 203.756C447.82 203.756 448.05 203.774 448.263 203.809C449.806 203.862 451.296 203.756 452.838 203.596C447.997 197.957 443.794 191.839 439.804 185.562C438.315 185.615 436.825 185.881 435.442 186.306Z" fill="white"/>
<path opacity="0.5" d="M459.329 197.266C459.151 196.237 458.956 195.191 458.743 194.127C456.545 191.644 454.47 189.055 452.519 186.36C452.448 186.36 452.395 186.36 452.359 186.36C450.48 186.182 448.618 186.023 446.773 185.881C450.391 191.467 454.434 196.734 458.85 201.681C459.595 200.511 459.541 198.755 459.329 197.266Z" fill="white"/>
<g style="mix-blend-mode:multiply" opacity="0.5">
<path fill-rule="evenodd" clip-rule="evenodd" d="M422.408 190.935C423.738 195.244 424.589 199.766 423.791 204.182C423.685 204.66 423.578 205.139 423.312 205.512C422.94 205.937 422.355 206.15 421.769 206.363C417.779 207.64 413.417 207.959 409.267 207.267C407.725 207.054 406.129 206.629 404.958 205.618C404.054 204.82 403.469 203.703 402.937 202.639C401.553 199.872 400.312 197.035 399.213 194.127C398.681 192.531 396.765 189.179 398.521 187.849C400.383 186.36 404.905 186.519 407.246 186.253C410.261 185.934 413.293 185.81 416.343 185.881C417.407 185.881 418.524 185.934 419.482 186.413C421.131 187.264 421.876 189.179 422.408 190.935ZM421.291 191.52C420.812 189.924 420.12 188.168 418.631 187.424C417.779 186.998 416.769 186.945 415.811 186.945C413.08 186.909 410.331 187.016 407.565 187.264C405.49 187.477 401.447 187.37 399.745 188.7C398.149 189.924 399.851 192.956 400.383 194.393C401.341 197.017 402.458 199.571 403.735 202.054C404.213 203.011 404.692 204.022 405.543 204.714C406.607 205.671 408.044 206.044 409.427 206.256C413.204 206.842 417.088 206.576 420.705 205.405C421.237 205.246 421.769 205.033 422.089 204.66C422.355 204.288 422.461 203.862 422.514 203.49C423.259 199.5 422.461 195.404 421.291 191.52Z" fill="#666EB2"/>
<path opacity="0.3" fill-rule="evenodd" clip-rule="evenodd" d="M422.408 190.935C423.738 195.244 424.589 199.766 423.791 204.182C423.685 204.66 423.578 205.139 423.312 205.512C422.94 205.937 422.355 206.15 421.769 206.363C417.779 207.64 413.417 207.959 409.267 207.267C407.725 207.054 406.129 206.629 404.958 205.618C404.054 204.82 403.469 203.703 402.937 202.639C401.553 199.872 400.312 197.035 399.213 194.127C398.681 192.531 396.765 189.179 398.521 187.849C400.383 186.36 404.905 186.519 407.246 186.253C410.261 185.934 413.293 185.81 416.343 185.881C417.407 185.881 418.524 185.934 419.482 186.413C421.131 187.264 421.876 189.179 422.408 190.935ZM421.291 191.52C420.812 189.924 420.12 188.168 418.631 187.424C417.779 186.998 416.769 186.945 415.811 186.945C413.08 186.909 410.331 187.016 407.565 187.264C405.49 187.477 401.447 187.37 399.745 188.7C398.149 189.924 399.851 192.956 400.383 194.393C401.341 197.017 402.458 199.571 403.735 202.054C404.213 203.011 404.692 204.022 405.543 204.714C406.607 205.671 408.044 206.044 409.427 206.256C413.204 206.842 417.088 206.576 420.705 205.405C421.237 205.246 421.769 205.033 422.089 204.66C422.355 204.288 422.461 203.862 422.514 203.49C423.259 199.5 422.461 195.404 421.291 191.52Z" fill="#666EB2"/>
</g>
<g style="mix-blend-mode:multiply" opacity="0.5">
<path fill-rule="evenodd" clip-rule="evenodd" d="M461.297 197.691C461.616 199.872 461.616 202.639 459.648 203.756C459.009 204.128 458.264 204.288 457.573 204.394C454.594 204.873 451.615 205.299 448.582 205.139C445.603 204.98 442.57 204.235 440.123 202.479C437.41 200.564 428.473 187.477 431.718 185.881C436.133 183.7 441.294 184.072 446.241 184.498C448.582 184.71 450.923 184.923 453.264 185.136C454.807 185.242 456.562 185.455 457.679 186.519C458.477 187.264 458.903 188.328 459.275 189.392C460.18 192.105 460.871 194.872 461.297 197.691ZM459.329 197.266C458.956 194.818 458.371 192.424 457.573 190.084C457.254 189.179 456.934 188.222 456.243 187.583C455.232 186.626 453.689 186.466 452.359 186.36C450.302 186.182 448.263 186.005 446.241 185.828C441.932 185.455 437.41 185.136 433.58 186.998C430.813 188.381 438.58 199.766 440.921 201.468C443.049 202.958 445.656 203.65 448.263 203.809C450.923 203.916 453.53 203.543 456.083 203.118C456.722 203.011 457.36 202.905 457.945 202.586C459.594 201.575 459.648 199.181 459.329 197.266Z" fill="#666EB2"/>
</g>
<g style="mix-blend-mode:multiply" opacity="0.5">
<path fill-rule="evenodd" clip-rule="evenodd" d="M461.297 197.691C461.616 199.872 461.616 202.639 459.648 203.756C459.009 204.128 458.264 204.288 457.573 204.394C454.594 204.873 451.615 205.299 448.582 205.139C445.603 204.98 442.57 204.235 440.123 202.479C437.41 200.564 428.473 187.477 431.718 185.881C436.133 183.7 441.294 184.072 446.241 184.498C448.582 184.71 450.923 184.923 453.264 185.136C454.807 185.242 456.562 185.455 457.679 186.519C458.477 187.264 458.903 188.328 459.275 189.392C460.18 192.105 460.871 194.872 461.297 197.691ZM459.329 197.266C458.956 194.818 458.371 192.424 457.573 190.084C457.254 189.179 456.934 188.222 456.243 187.583C455.232 186.626 453.689 186.466 452.359 186.36C450.302 186.182 448.263 186.005 446.241 185.828C441.932 185.455 437.41 185.136 433.58 186.998C430.813 188.381 438.58 199.766 440.921 201.468C443.049 202.958 445.656 203.65 448.263 203.809C450.923 203.916 453.53 203.543 456.083 203.118C456.722 203.011 457.36 202.905 457.945 202.586C459.594 201.575 459.648 199.181 459.329 197.266Z" fill="white"/>
</g>
<path d="M508.592 177.954C508.858 175.773 509.283 173.485 510.667 171.783C511.571 170.612 512.848 169.761 514.178 169.07C516.678 167.793 519.498 166.888 522.211 167.474C526.095 168.272 528.808 171.889 529.712 175.72C530.563 179.55 529.978 183.54 529.287 187.424C528.861 189.711 528.435 192.052 527.212 194.074C525.563 196.734 522.743 198.489 519.657 199.074C517.689 199.5 513.805 199.819 511.997 198.702C510.294 197.638 510.188 195.989 509.709 194.074C508.432 188.807 508.06 183.327 508.592 177.954Z" fill="#F0C49B"/>
<path d="M512.316 184.604C511.837 181.784 511.571 178.858 512.529 176.198C513.433 173.538 515.934 171.198 518.806 171.357C521.52 171.517 523.701 173.858 524.871 176.305C525.456 177.528 525.829 178.752 526.042 180.082C526.467 182.795 525.988 185.615 525.19 188.328C524.446 190.722 523.328 193.169 521.254 194.552C514.391 199.128 513.008 188.807 512.316 184.604Z" fill="#E0A988"/>
<path opacity="0.5" d="M218.333 214.13H403.735L430.441 378.465L251.955 362.398L218.333 214.13Z" fill="#FAFDF8"/>
<path d="M231.473 220.461C231.473 221.844 230.356 222.961 228.973 222.961C227.59 222.961 226.472 221.844 226.472 220.461C226.472 219.078 227.59 217.96 228.973 217.96C230.356 217.96 231.473 219.078 231.473 220.461Z" fill="white"/>
<path d="M243.816 220.461C243.816 221.844 242.698 222.961 241.368 222.961C239.985 222.961 238.868 221.844 238.868 220.461C238.868 219.078 239.985 217.96 241.368 217.96C242.698 217.96 243.816 219.078 243.816 220.461Z" fill="white"/>
<path d="M257.116 220.461C257.116 221.844 255.998 222.961 254.668 222.961C253.285 222.961 252.168 221.844 252.168 220.461C252.168 219.078 253.285 217.96 254.668 217.96C255.998 217.96 257.116 219.078 257.116 220.461Z" fill="white"/>
<path d="M371.442 517.742V532.213H517.689V469.49L371.442 517.742Z" fill="#666EB2"/>
<g style="mix-blend-mode:multiply" opacity="0.3">
<path d="M371.442 517.742V532.213H517.689V469.49L371.442 517.742Z" fill="#666EB2"/>
</g>
<g style="mix-blend-mode:multiply" opacity="0.3">
<path d="M517.689 469.49L372.719 517.317C372.719 517.671 372.737 518.026 372.772 518.381C394.478 515.934 416.29 514.231 438.102 513.274C445.231 513.008 452.572 512.795 459.329 515.189C462.414 516.306 465.34 518.008 468.585 518.7C475.235 520.243 482.63 517.689 488.855 520.456C495.983 523.648 498.697 518.54 499.175 526.308C499.282 528.276 499.282 530.244 499.229 532.213H517.689V469.49Z" fill="#666EB2"/>
</g>
<path d="M45.8052 477.683C45.8052 478.108 45.8052 532.213 45.8052 532.213H371.442V505.932L45.8052 477.683Z" fill="#666EB2"/>
<g style="mix-blend-mode:multiply" opacity="0.5">
<path d="M45.8052 477.683C45.8052 478.108 45.8052 532.213 45.8052 532.213H371.442V505.932L45.8052 477.683Z" fill="#666EB2"/>
</g>
<path d="M13.5127 463.585L269.671 423.259L561.898 469.49L371.442 503.91L13.5127 463.585Z" fill="#666EB2"/>
<g style="mix-blend-mode:multiply" opacity="0.5">
<path d="M287.546 426.079C290.791 432.09 293.504 438.315 293.983 445.071C294.196 447.731 294.089 450.657 295.526 452.892C297.015 455.179 300.846 456.03 302.282 453.743C302.868 457.733 306.751 460.659 310.741 461.297C314.731 461.936 318.828 460.765 322.605 459.276C328.723 456.935 334.522 453.743 339.895 449.912C342.023 455.764 349.683 458.424 355.535 456.084C358.887 454.754 361.707 452.147 365.218 451.349C369.953 450.232 374.688 452.626 379.156 454.488C389.105 458.69 399.904 460.765 410.704 460.606C413.949 460.552 417.247 460.286 420.333 461.297C422.94 462.202 425.228 463.957 427.409 465.66C435.442 471.884 443.581 478.268 449.327 486.674C449.965 487.596 450.568 488.536 451.136 489.493L561.898 469.49L287.546 426.079Z" fill="#666EB2"/>
</g>
<path d="M371.442 517.742V503.91L13.5127 463.585V477.683L371.442 517.742Z" fill="#666EB2"/>
<path d="M371.442 503.91L561.898 469.49V482.896L371.442 517.742V503.91Z" fill="#666EB2"/>
<path opacity="0.5" d="M371.442 517.742V503.91L13.5127 463.585V477.683L371.442 517.742Z" fill="white"/>
<path opacity="0.2" d="M371.442 503.91L561.898 469.49V482.896L371.442 517.742V503.91Z" fill="white"/>
<g style="mix-blend-mode:multiply" opacity="0.5">
<path d="M82.2471 461.191L324.679 491.355L453.689 466.351L233.229 425.494L82.2471 461.191Z" fill="#666EB2"/>
</g>
<path d="M317.285 467.788L434.91 451.828L427.196 457.839C420.865 462.787 413.364 466.032 405.437 467.202L317.551 480.236" fill="#717171"/>
<path d="M434.91 451.828L245.944 430.335L120.179 450.764L317.285 467.788L434.91 451.828Z" fill="#434343"/>
<g style="mix-blend-mode:multiply" opacity="0.5">
<path d="M434.91 451.828L245.944 430.335L120.179 450.764L317.285 467.788L434.91 451.828Z" fill="#434343"/>
</g>
<path d="M317.231 463.585L403.043 450.764L246.316 436.08L168.112 447.412L317.231 463.585Z" fill="#434343"/>
<path opacity="0.5" d="M317.231 463.585L403.043 450.764L246.316 436.08L168.112 447.412L317.231 463.585Z" fill="white"/>
<path d="M301.804 408.15C307.017 406.448 312.656 406.076 317.657 403.841C319.36 403.096 320.956 402.139 322.818 401.873C325.797 401.447 328.67 402.937 331.223 404.533C335.479 407.14 339.735 410.544 340.906 415.386C341.916 419.748 340.214 424.323 337.82 428.1C336.543 430.069 335.107 431.931 333.351 433.527C330.638 435.974 327.286 437.676 323.935 439.272C320.317 440.975 316.434 442.677 312.444 442.039C306.911 441.188 303.027 436.08 300.314 431.186C298.026 427.036 294.834 421.929 294.036 417.194C293.238 412.566 297.973 409.374 301.804 408.15Z" fill="#F0C49B"/>
<path d="M336.809 408.736C336.242 408.877 335.674 409.055 335.107 409.268C332.128 410.438 329.574 412.513 327.127 414.588C318.934 421.255 310.759 427.941 302.602 434.644C302.566 434.679 302.531 434.697 302.495 434.697C305.049 438.315 308.241 441.4 312.444 442.039C316.434 442.677 320.317 440.975 323.935 439.272C327.286 437.676 330.638 435.974 333.351 433.527C335.107 431.931 336.543 430.069 337.82 428.1C340.214 424.323 341.916 419.748 340.906 415.386C340.267 412.779 338.724 410.598 336.809 408.736Z" fill="#E0A988"/>
<path d="M323.881 411.928C326.08 419.943 328.066 428.012 329.84 436.134C331.117 435.336 332.287 434.484 333.351 433.527C333.457 433.42 333.546 433.332 333.617 433.261C329.893 426.611 327.393 419.322 326.382 411.768C326.009 412.726 324.573 412.672 323.881 411.928Z" fill="#E0A988"/>
<path d="M308.028 418.046C311.858 425.6 314.784 433.633 316.753 441.879C318.189 441.613 319.572 441.134 320.955 440.602C316.912 432.835 314.891 424.057 312.975 415.439C312.443 417.407 310.049 418.418 308.028 418.046Z" fill="#E0A988"/>
<path d="M299.303 409.214C296.217 410.81 293.451 413.577 294.036 417.194C294.834 421.929 298.026 427.036 300.314 431.186C302.867 435.761 306.432 440.549 311.433 441.826C309.677 432.622 306.911 423.578 303.133 415.013C302.229 412.938 301.005 410.651 299.303 409.214Z" fill="#E0A988"/>
<path d="M305.634 432.09C306.113 433.367 306.645 434.804 306.113 436.134C305.421 437.836 303.08 438.474 301.325 437.889C299.516 437.251 298.186 435.814 296.962 434.378C292.6 429.164 288.77 423.472 286.429 417.088C285.95 415.811 285.524 414.428 285.578 413.045C285.631 411.608 286.216 410.172 287.44 409.48C291.057 407.193 296.75 412.566 298.878 415.279C300.42 417.248 301.112 420.12 301.963 422.461C303.204 425.653 304.428 428.863 305.634 432.09Z" fill="#F0C49B"/>
<path d="M304.091 431.08C303.346 430.122 302.495 429.164 301.325 428.792C300.208 428.42 298.665 428.845 298.292 430.016C298.186 430.494 298.239 431.026 298.292 431.505C298.612 433.474 299.197 435.389 299.942 437.198C300.367 437.481 300.828 437.712 301.325 437.889C303.08 438.474 305.421 437.836 306.113 436.134C306.379 435.389 306.379 434.644 306.219 433.899C305.545 432.942 304.836 432.002 304.091 431.08Z" fill="#FAFDF8"/>
<g style="mix-blend-mode:multiply" opacity="0.5">
<path opacity="0.5" d="M434.91 451.828L291.908 435.602C292.972 438.634 293.717 441.773 293.983 445.071C294.196 447.731 294.089 450.657 295.526 452.892C297.015 455.179 300.846 456.03 302.282 453.743C302.867 457.733 306.751 460.659 310.741 461.297C314.731 461.936 318.827 460.765 322.605 459.276C328.723 456.935 334.521 453.743 339.895 449.912C342.023 455.764 349.683 458.424 355.535 456.084C358.887 454.754 361.707 452.147 365.218 451.349C369.953 450.232 374.687 452.626 379.156 454.488C389.105 458.69 399.904 460.765 410.704 460.606C413.949 460.552 417.247 460.286 420.333 461.297C420.688 461.439 421.042 461.581 421.397 461.723C423.419 460.606 425.334 459.329 427.196 457.839L434.91 451.828Z" fill="#434343"/>
</g>
<path d="M464.542 491.355C463.319 489.174 462.84 486.674 462.467 484.226C460.339 469.65 462.095 454.541 467.521 440.709C468.16 439.06 469.064 437.251 470.82 436.825C473.054 436.24 475.129 438.102 476.459 439.911C486.301 453.424 486.514 471.831 479.704 486.886C476.938 493.058 469.543 500.08 464.542 491.355Z" fill="#4488F0"/>
<g style="mix-blend-mode:multiply">
<path d="M464.542 491.355C463.319 489.174 462.84 486.674 462.467 484.226C460.339 469.65 462.095 454.541 467.521 440.709C468.16 439.06 469.064 437.251 470.82 436.825C473.054 436.24 475.129 438.102 476.459 439.911C486.301 453.424 486.514 471.831 479.704 486.886C476.938 493.058 469.543 500.08 464.542 491.355Z" fill="#4488F0"/>
</g>
<path d="M527.85 449.912C532.638 450.444 537.426 450.657 542.214 451.242C564.612 453.956 585.838 465.287 600.628 482.311C603.554 485.769 606.32 489.44 607.863 493.696C608.289 495.026 608.608 496.516 608.023 497.739C607.544 498.644 606.64 499.176 605.735 499.708C589.935 508.805 570.942 510.082 552.695 509.603C534.075 509.071 515.029 506.836 498.165 498.856C496.196 497.899 494.228 496.835 492.951 495.079C491.674 493.27 491.408 490.93 491.196 488.748C490.132 476.512 490.823 461.084 496.356 449.806C498.697 444.965 501.889 445.231 506.73 446.188C513.752 447.625 520.722 449.168 527.85 449.912Z" fill="#4488F0"/>
<path d="M488.376 482.471C490.876 481.939 492.845 479.864 493.855 477.523C494.866 475.182 495.026 472.522 494.919 469.969C494.707 464.276 493.057 458.69 490.663 453.477C488.855 449.646 486.567 445.922 483.481 442.943C479.704 439.272 474.916 436.825 470.022 434.857C460.339 430.92 450.072 428.579 440.177 425.068C435.974 423.578 431.824 421.823 427.462 420.759C423.419 419.695 419.216 419.269 415.066 418.79C394.283 416.485 373.482 414.18 352.663 411.874C351.545 412.779 349.949 413.524 349.683 414.907C349.417 416.396 350.269 417.833 351.067 419.11C354.631 424.589 358.195 430.175 362.824 434.75C369.048 440.922 376.922 445.178 384.849 448.955C387.721 450.338 390.701 451.721 393.786 452.572C399.213 454.062 404.905 454.062 410.491 454.009C416.379 453.973 422.284 453.938 428.207 453.902C442.145 465.181 455.658 472.31 470.767 479.545C475.874 481.939 482.843 483.801 488.376 482.471Z" fill="#F0C49B"/>
<path d="M494.919 469.969C494.707 464.276 493.057 458.69 490.663 453.477C488.855 449.646 486.567 445.922 483.481 442.943C479.704 439.272 474.916 436.825 470.022 434.857C468.816 434.36 467.61 433.881 466.404 433.42C467.947 436.134 469.117 439.06 469.862 442.092C472.097 451.083 471.139 460.712 467.787 469.33C466.83 471.778 465.713 474.172 464.383 476.459C466.475 477.488 468.603 478.516 470.767 479.545C475.874 481.939 482.843 483.801 488.376 482.471C490.876 481.939 492.845 479.864 493.855 477.523C494.866 475.182 495.026 472.522 494.919 469.969Z" fill="#E0A988"/>
<path d="M421.291 450.125C414.055 447.997 406.075 448.636 399.159 445.656C395.701 444.167 392.669 441.879 389.53 439.911C385.274 437.251 380.699 435.07 376.337 432.676C366.92 427.462 358.302 421.025 349.896 414.322C349.79 414.499 349.719 414.694 349.683 414.907C349.417 416.396 350.269 417.833 351.067 419.11C354.631 424.589 358.195 430.175 362.824 434.75C369.048 440.922 376.922 445.178 384.849 448.955C387.721 450.338 390.701 451.721 393.786 452.572C399.213 454.062 404.905 454.062 410.491 454.009C416.379 453.973 422.284 453.938 428.207 453.902C428.207 453.938 428.224 453.973 428.26 454.009C427.994 453.743 427.728 453.424 427.462 453.211C425.653 451.721 423.472 450.817 421.291 450.125Z" fill="#E0A988"/>
<path d="M341.012 412.406C338.724 408.15 337.714 403.043 338.884 398.255C339.15 396.978 339.788 395.595 341.065 395.276C342.395 394.957 343.619 395.861 344.576 396.766C351.226 402.937 356.866 410.172 364.367 415.226C368.197 417.833 372.666 419.961 375.22 423.844C375.379 424.164 375.592 424.483 375.592 424.855C375.592 425.281 375.379 425.706 375.06 426.026C373.836 427.515 371.815 428.047 369.9 428.26C358.568 429.377 346.279 422.302 341.012 412.406Z" fill="#F0C49B"/>
<path d="M375.219 423.844C372.666 419.961 368.197 417.833 364.367 415.226C361.015 412.992 358.089 410.332 355.216 407.512C352.769 409.161 349.524 409.853 346.598 409.268C343.406 408.629 340.639 406.82 338.511 404.373C338.831 407.193 339.682 409.959 341.012 412.406C346.279 422.302 358.568 429.377 369.899 428.26C371.815 428.047 373.836 427.515 375.06 426.026C375.379 425.706 375.592 425.281 375.592 424.855C375.592 424.483 375.379 424.164 375.219 423.844Z" fill="#E0A988"/>
<path d="M297.76 446.188C298.345 448.316 300.739 449.593 302.974 449.593C305.208 449.54 307.283 448.423 309.145 447.199C314.412 443.848 318.827 439.326 323.562 435.282C328.35 431.133 333.511 427.462 338.618 423.685C339.416 423.1 340.214 422.461 340.693 421.61C342.714 418.099 338.777 414.8 335.532 414.641C332.447 414.481 330.531 417.46 328.35 419.269C321.647 424.802 314.731 430.122 308.241 435.868C304.57 439.113 301.059 442.518 297.76 446.188Z" fill="#F0C49B"/>
<path d="M335.532 414.641C332.447 414.481 330.531 417.46 328.35 419.269C324.999 422.036 321.647 424.696 318.295 427.409C315.795 430.441 313.401 433.527 311.486 436.932C309.624 440.336 308.294 444.06 308.028 447.944C308.418 447.696 308.79 447.447 309.145 447.199C314.412 443.848 318.827 439.326 323.562 435.282C328.35 431.133 333.511 427.462 338.618 423.685C339.416 423.1 340.214 422.461 340.693 421.61C342.714 418.152 338.777 414.8 335.532 414.641Z" fill="#E0A988"/>
<path d="M305.74 441.773C305.687 440.762 305.315 439.804 304.995 438.847C302.495 441.188 300.048 443.635 297.76 446.188C298.079 447.359 298.984 448.316 300.101 448.902C301.112 448.423 302.123 447.838 302.974 447.146C304.623 445.816 305.847 443.848 305.74 441.773Z" fill="#FAFDF8"/>
<path d="M348.619 424.589C341.863 428.366 335.373 432.622 329.308 437.357C327.339 438.9 325.371 440.496 323.935 442.518C320.849 446.88 320.477 452.785 315.582 456.243C314.359 457.094 312.869 457.36 311.379 457.254C311.007 457.201 310.635 457.148 310.369 456.882C310.05 456.509 310.103 455.977 310.209 455.498L313.029 440.177C313.295 438.581 313.933 437.091 314.944 435.814C319.413 429.909 324.999 422.568 330.372 416.396C331.542 415.12 332.713 413.79 334.309 413.151C335.692 412.566 337.235 412.566 338.777 412.566C346.757 412.619 372.347 415.013 379.901 417.62C381.231 418.046 379.422 425.44 379.901 426.824C380.486 428.632 364.739 421.397 363.143 422.461C358.993 425.121 353.407 425.866 348.619 424.589Z" fill="#F0C49B"/>
<path d="M373.836 418.737C369.58 417.088 365.112 416.29 360.643 415.598C357.451 415.066 354.259 414.57 351.067 414.109C348.62 413.79 345.64 413.311 343.512 414.641C338.086 418.046 333.351 422.568 328.936 427.249C326.861 429.537 324.786 431.824 323.084 434.378C318.562 440.975 316.487 448.902 314.678 456.722C314.997 456.58 315.299 456.42 315.582 456.243C320.477 452.785 320.849 446.88 323.935 442.518C325.371 440.496 327.34 438.9 329.308 437.357C335.373 432.622 341.863 428.366 348.62 424.589C353.408 425.866 358.994 425.121 363.143 422.461C364.739 421.397 380.486 428.632 379.901 426.824C379.635 426.132 379.954 424.004 380.22 421.929C378.146 420.706 376.071 419.588 373.836 418.737Z" fill="#E0A988"/>
<path d="M314.731 448.104C314.625 447.465 314.465 446.774 313.986 446.348C313.401 445.922 312.656 445.922 311.911 446.082L310.209 455.498C310.103 455.977 310.05 456.509 310.369 456.882C310.635 457.148 311.007 457.201 311.379 457.254C311.841 457.289 312.302 457.272 312.763 457.201C312.869 456.953 312.975 456.687 313.082 456.403C314.039 453.743 315.05 450.923 314.731 448.104Z" fill="#FAFDF8"/>
<path d="M323.615 443.103C323.083 440.549 321.328 438.262 319.04 437.038" stroke="#BA7A5D" stroke-width="2" stroke-linecap="round" stroke-linejoin="round"/>
<path d="M396.765 437.942C398.202 436.878 398.627 434.963 397.883 433.42C396.34 430.069 393.414 427.409 390.169 425.6C386.125 423.366 381.55 422.302 377.081 421.238C369.101 419.376 360.962 417.514 352.982 415.705C349.524 414.907 345.906 415.758 343.299 418.152C342.501 418.897 341.65 419.695 340.905 420.493C337.997 423.33 335.089 426.185 332.181 429.058C330.319 430.867 328.51 432.622 326.967 434.644C325.371 436.772 324.094 439.166 322.817 441.507C320.973 444.912 319.111 448.316 317.231 451.721C317.338 452.36 317.657 452.306 318.189 452.572C319.519 453.317 320.849 454.009 322.339 454.009C324.36 453.956 326.063 452.519 327.552 451.136C330.106 448.742 332.659 446.295 334.628 443.369C335.319 442.305 336.277 441.4 337.394 440.709C342.501 437.464 347.609 434.591 352.875 431.558C353.514 431.186 354.205 431.026 354.95 431.026C365.856 431.612 375.698 436.825 386.445 439.272C388.466 439.751 390.647 440.07 392.722 439.804C393.999 439.592 395.542 438.9 396.765 437.942Z" fill="#F0C49B"/>
<path d="M371.602 423.738C367.984 424.696 364.473 426.132 360.802 426.77C357.238 427.409 353.461 427.196 350.003 428.366C347.077 429.324 344.576 431.239 342.129 433.101C337.288 436.878 332.34 440.709 328.457 445.497C326.169 448.37 324.094 451.721 321.168 453.849C321.558 453.956 321.948 454.009 322.339 454.009C324.36 453.956 326.063 452.519 327.552 451.136C330.106 448.742 332.659 446.295 334.628 443.369C335.319 442.305 336.277 441.4 337.394 440.709C342.501 437.464 347.609 434.591 352.875 431.558C353.514 431.186 354.205 431.026 354.95 431.026C365.856 431.612 375.698 436.825 386.445 439.272C388.466 439.751 390.647 440.07 392.722 439.804C393.999 439.592 395.542 438.9 396.765 437.942C398.042 436.985 398.521 435.336 398.042 433.846C392.19 428.579 381.816 420.918 371.602 423.738Z" fill="#E0A988"/>
<path d="M351.173 432.09C352.769 431.239 353.461 429.271 353.461 427.462C353.408 425.653 352.769 423.951 352.344 422.195" stroke="#BA7A5D" stroke-width="2" stroke-linecap="round" stroke-linejoin="round"/>
<path d="M335.479 442.198C336.011 439.272 335.107 436.134 333.085 433.952" stroke="#BA7A5D" stroke-width="2" stroke-linecap="round" stroke-linejoin="round"/>
<path d="M324.626 447.412C324.892 446.135 324.52 444.646 323.456 443.848C322.977 443.528 322.392 443.369 321.807 443.369C320.282 446.171 318.757 448.955 317.231 451.721C317.338 452.36 317.657 452.306 318.189 452.572C319.093 453.104 319.998 453.583 320.955 453.796C321.594 452.838 322.232 451.881 322.871 450.923C323.615 449.806 324.36 448.689 324.626 447.412Z" fill="#FAFDF8"/>
<path d="M395.223 444.646C389.317 442.89 383.625 440.443 378.305 437.357C374.953 439.006 371.123 440.656 367.665 441.932C364.845 442.943 363.249 446.188 360.855 447.891C359.153 449.114 357.344 450.285 355.323 450.657C353.248 450.976 350.907 450.338 349.79 448.636C354.205 443.262 356.546 436.24 361.813 431.718C364.26 429.643 367.133 428.26 370.006 426.877C372.187 425.813 374.475 424.749 376.869 424.802C385.487 425.015 392.988 430.707 399.957 435.708C401.341 436.719 402.83 437.942 403.043 439.645C403.256 441.294 402.139 442.89 400.755 443.741C399.319 444.592 396.819 445.124 395.223 444.646Z" fill="#F0C49B"/>
<path d="M365.697 442.837C365.963 440.922 365.643 438.953 364.739 437.251" stroke="#BA7A5D" stroke-width="2" stroke-linecap="round" stroke-linejoin="round"/>
<path d="M378.252 437.357C378.624 436.666 378.784 435.868 378.837 435.07C378.943 433.58 378.677 432.144 378.358 430.654" stroke="#BA7A5D" stroke-width="2" stroke-linecap="round" stroke-linejoin="round"/>
<path d="M355.482 444.486C355.748 443.262 355.535 441.932 354.844 440.922C353.248 443.582 351.705 446.295 349.79 448.636C350.215 449.274 350.747 449.753 351.439 450.072C351.865 449.682 352.29 449.292 352.716 448.902C353.939 447.625 355.11 446.188 355.482 444.486Z" fill="#FAFDF8"/>
<path d="M466.191 493.802C474.065 486.514 479.225 476.3 480.396 465.606C481.619 454.966 478.906 443.848 472.895 434.963C478.321 438.262 484.439 440.602 490.717 441.666C495.664 442.464 500.931 441.773 505.613 443.635C510.507 445.497 514.071 449.966 515.88 454.86C517.689 459.754 517.902 465.128 517.583 470.394C516.944 479.917 514.497 489.334 510.454 498.005C509.975 499.016 509.496 499.974 508.698 500.718C507.9 501.41 506.836 501.836 505.825 502.155C492.153 506.57 477.044 503.219 466.191 493.802Z" fill="#4488F0"/>
<path opacity="0.5" d="M466.191 493.802C474.065 486.514 479.225 476.3 480.396 465.606C481.619 454.966 478.906 443.848 472.895 434.963C478.321 438.262 484.439 440.602 490.717 441.666C495.664 442.464 500.931 441.773 505.613 443.635C510.507 445.497 514.071 449.966 515.88 454.86C517.689 459.754 517.902 465.128 517.583 470.394C516.944 479.917 514.497 489.334 510.454 498.005C509.975 499.016 509.496 499.974 508.698 500.718C507.9 501.41 506.836 501.836 505.825 502.155C492.153 506.57 477.044 503.219 466.191 493.802Z" fill="white"/>
<path opacity="0.5" d="M515.88 454.86C514.071 449.966 510.507 445.497 505.613 443.635C503.431 442.784 501.144 442.464 498.856 442.305C502.953 458.531 501.144 476.246 493.536 491.196C496.728 474.225 494.228 456.19 486.514 440.762C481.726 439.485 477.097 437.517 472.895 434.963C478.906 443.848 481.619 454.966 480.396 465.606C479.225 476.3 474.065 486.514 466.191 493.802C477.044 503.219 492.153 506.57 505.825 502.155C506.836 501.836 507.9 501.41 508.698 500.718C509.496 499.974 509.975 499.016 510.454 498.005C514.497 489.334 516.944 479.917 517.583 470.394C517.902 465.128 517.689 459.754 515.88 454.86Z" fill="white"/>
<path d="M73.0434 288.663L87.7266 283.503C87.7621 283.503 87.8153 283.503 87.8862 283.503H257.009C262.914 283.503 268.021 287.706 269.139 293.504C275.682 327.233 300.207 437.676 301.75 443.848C303.612 451.242 302.708 470.98 286.961 470.926C273.501 470.82 122.626 445.656 114.646 444.38C114.433 444.326 114.273 444.167 114.22 444.007L72.7242 289.248C72.6178 288.982 72.7774 288.716 73.0434 288.663Z" fill="#434343"/>
<path d="M72.5647 288.823H247.539C254.881 288.823 261.318 293.877 262.967 301.059C271.852 338.884 297.973 451.668 296.058 457.892C293.717 465.34 291.962 467.575 283.822 466.458C275.682 465.34 122.839 453.051 118.21 452.998C113.635 452.998 109.007 446.242 105.123 432.09C101.24 417.939 72.5647 288.823 72.5647 288.823Z" fill="#717171"/>
<path d="M120.179 450.764C120.179 450.764 117.146 454.009 121.402 459.701C125.658 465.34 128.85 463.957 128.85 463.957L317.551 480.236L317.285 467.788L120.179 450.764Z" fill="#434343"/>
<path d="M138.001 466.458C135.075 463.904 133.053 460.393 132.308 456.562C131.723 453.743 132.095 450.338 134.436 448.636C136.671 449.061 138.586 449.54 140.82 449.966C138.054 455.605 140.501 463.266 146.087 466.192C143.108 467.202 140.501 467.522 138.001 466.458Z" fill="#717171"/>
<path d="M287.705 462.893C285.258 465.074 284.194 468.532 284.567 471.778C284.939 475.023 286.695 478.002 289.089 480.236C285.524 480.024 281.481 481.46 278.555 479.438C275.363 477.257 273.82 473.374 273.182 469.596C272.65 466.617 272.969 462.893 275.682 461.457C279.619 462.095 283.662 463 287.705 462.893Z" fill="#717171"/>
<path opacity="0.2" d="M94.6958 297.228H245.624C249.933 297.228 253.657 300.154 254.615 304.357C261.531 333.777 287.28 444.433 285.471 450.338C283.396 457.094 281.747 459.063 274.405 458.052C267.064 457.094 128.637 445.922 124.488 445.869C120.338 445.869 116.135 439.751 112.624 426.983C109.751 416.609 92.2486 338.139 85.6518 308.507C84.375 302.708 88.7906 297.228 94.6958 297.228Z" fill="#FAFDF8"/>
<g opacity="0.5">
<path d="M186.785 375.964C188.594 385.062 184.551 393.467 177.794 394.797C171.038 396.127 164.175 389.796 162.366 380.699C160.611 371.602 164.654 363.196 171.357 361.866C178.114 360.536 185.03 366.867 186.785 375.964Z" stroke="#FAFDF8" stroke-width="6" stroke-linecap="round" stroke-linejoin="round"/>
</g>
</g>
<defs>
<clipPath id="clip0_3309_1224">
<rect width="798" height="532" fill="white"/>
</clipPath>
</defs>
</svg>
